<svg xmlns="http://www.w3.org/2000/svg" xmlns:xlink="http://www.w3.org/1999/xlink" width="200" height="22" viewBox="0 0 200 22"><defs><polygon id="logo-a" points="0 .142 20.872 .142 20.872 21.212 0 21.212"/><polygon id="logo-c" points=".454 .142 21.326 .142 21.326 21.212 .454 21.212"/><polygon id="logo-e" points=".232 .103 20.15 .103 20.15 20.037 .232 20.037"/></defs><g fill="none" fill-rule="evenodd"><g transform="translate(0 .464)"><mask id="logo-b" fill="#fff"><use xlink:href="#logo-a"/></mask><path fill="#161D6C" d="M20.8430909,1.16612121 L20.643697,6.00672727 C17.5976364,5.32309091 14.4364242,4.98187879 11.1903636,4.98187879 C9.11218182,4.98187879 8.37157576,5.43763636 8.37157576,6.34915152 C8.37157576,6.83278788 8.79884848,7.23157576 9.65278788,7.5170303 C10.5073333,7.77218182 11.5606667,8.02854545 12.7849091,8.22793939 C14.0091515,8.42612121 15.234,8.71218182 16.4582424,9.054 C17.6830909,9.39521212 18.7358182,9.99278788 19.5903636,10.8479394 C20.444303,11.7024848 20.8715758,12.784303 20.8715758,14.1218788 C20.8715758,18.7921818 17.3697576,21.2121818 9.48187879,21.2121818 C5.63763636,21.2121818 2.4770303,20.5570303 6.06060606e-05,19.2194545 L2.33460606,14.7770303 C4.35642424,15.8018788 6.97642424,16.3152121 10.1370303,16.3152121 C13.2685455,16.3152121 14.8352121,15.8303636 14.8352121,14.8624848 C14.8352121,12.3279394 2.61945455,14.2352121 2.61945455,6.94672727 C2.61945455,2.73278788 6.15036364,0.141878788 12.984303,0.141878788 C15.7467273,0.141878788 18.3661212,0.483090909 20.8430909,1.16612121" mask="url(#logo-b)"/></g><polygon fill="#161D6C" points="45.249 1.175 43.882 6.187 36.849 6.187 34.485 21.107 28.62 21.107 30.983 6.187 23.409 6.187 24.206 1.175"/><path fill="#161D6C" d="M50.7761818 13.3905455L55.7307273 13.3905455 54.107697 7.46812121 50.7761818 13.3905455zM57.8664848 21.1069091L56.8695152 17.4911515 48.4695152 17.4911515 46.4198182 21.1069091 39.6137576 21.1069091 52.3422424 1.17478788 57.6670909 1.17478788 64.0452727 21.1069091 57.8664848 21.1069091zM74.612 6.01539394L73.7295758 11.5396364 78.6556364 11.5396364C81.0471515 11.5396364 82.641697 10.3153939 82.641697 8.52206061 82.641697 6.92690909 81.3889697 6.01539394 79.481697 6.01539394L74.612 6.01539394zM83.8665455 15.1553939L86.6859394 21.106303 80.1071515 21.106303 78.342303 16.1802424 78.0010909 16.1802424 72.9889697 16.1802424 72.2204848 21.106303 66.3544242 21.106303 69.5156364 1.17478788 80.3641212 1.17478788C82.8410909 1.17478788 84.8338182 1.7729697 86.2871515 2.94084848 87.7392727 4.10751515 88.4792727 5.73115152 88.4792727 7.78145455 88.4792727 11.3402424 86.941697 13.8178182 83.8665455 15.1553939L83.8665455 15.1553939z"/><polygon fill="#008DFF" points="96.939 16.095 108.471 16.095 107.674 21.107 90.276 21.107 93.437 1.175 99.302 1.175"/><path fill="#008DFF" d="M130.883939 6.18648485L118.411212 6.18648485 117.984545 8.8349697 129.288788 8.8349697 128.576667 13.3331515 117.27303 13.3331515 117.18697 13.9313333C116.931212 15.5543636 117.27303 16.0955758 118.781515 16.0955758L129.516667 16.0955758 128.178485 21.1070909 117.215455 21.1070909C112.631818 21.1070909 110.580909 18.3731515 111.350606 13.7034545L113.314848 1.17375758 131.111212 1.17375758 130.883939 6.18648485zM141.251455 13.3905455L146.206 13.3905455 144.58297 7.46812121 141.251455 13.3905455zM148.341152 21.1069091L147.344788 17.4911515 138.944182 17.4911515 136.895091 21.1069091 130.08903 21.1069091 142.816909 1.17478788 148.141758 1.17478788 154.520545 21.1069091 148.341152 21.1069091z"/><g transform="translate(155.152 .464)"><mask id="logo-d" fill="#fff"><use xlink:href="#logo-c"/></mask><path fill="#008DFF" d="M21.2970303,1.16612121 L21.0976364,6.00672727 C18.0515758,5.32309091 14.8903636,4.98187879 11.644303,4.98187879 C9.56612121,4.98187879 8.82551515,5.43763636 8.82551515,6.34915152 C8.82551515,6.83278788 9.25278788,7.23157576 10.1067273,7.5170303 C10.9606667,7.77218182 12.0146061,8.02854545 13.2388485,8.22793939 C14.4630909,8.42612121 15.6879394,8.71218182 16.9121818,9.054 C18.1364242,9.39521212 19.1891515,9.99278788 20.044303,10.8479394 C20.8982424,11.7024848 21.3255152,12.784303 21.3255152,14.1218788 C21.3255152,18.7921818 17.823697,21.2121818 9.93581818,21.2121818 C6.09157576,21.2121818 2.9309697,20.5570303 0.454,19.2194545 L2.78854545,14.7770303 C4.81036364,15.8018788 7.43036364,16.3152121 10.5903636,16.3152121 C13.7224848,16.3152121 15.2891515,15.8303636 15.2891515,14.8624848 C15.2891515,12.3279394 3.07339394,14.2352121 3.07339394,6.94672727 C3.07339394,2.73278788 6.60430303,0.141878788 13.4382424,0.141878788 C16.2006667,0.141878788 18.8200606,0.483090909 21.2970303,1.16612121" mask="url(#logo-d)"/></g><g transform="translate(179.394 1.07)"><mask id="logo-f" fill="#fff"><use xlink:href="#logo-e"/></mask><path fill="#008DFF" d="M19.9233333,5.11618182 L7.45060606,5.11618182 L7.02454545,7.76466667 L18.3281818,7.76466667 L17.6160606,12.2628485 L6.31242424,12.2628485 L6.22575758,12.8610303 C5.97121212,14.4840606 6.31242424,15.0252727 7.82090909,15.0252727 L18.5560606,15.0252727 L17.2178788,20.0367879 L6.25484848,20.0367879 C1.67121212,20.0367879 -0.37969697,17.3028485 0.39,12.6331515 L2.35424242,0.103454545 L20.1506061,0.103454545 L19.9233333,5.11618182 Z" mask="url(#logo-f)"/></g><polygon fill="#008DFF" points="64.749 17.478 56.974 17.466 59.09 13.36 66.865 13.371"/></g></svg>